<svg xmlns="http://www.w3.org/2000/svg" viewBox="0 0 790 224" role="img" aria-label="3.1k contributions in the last year for caisergan" font-family="-apple-system,BlinkMacSystemFont,'Segoe UI',Helvetica,Arial,sans-serif"><style>.c-bg{fill:#0d1117}.c-s2{fill:#1c2027}.c-border{stroke:#2e343a}.c-fg{fill:#c3d1d9}.c-muted{fill:#7e888f}.c-accent{fill:#58a6ff}.c-chart{fill:#1f6feb}.c-chart-s{stroke:#1f6feb}.c-green{fill:#16a34a}.c-red{fill:#dc2626}.c-amber{fill:#d97706}.hm0{fill:#161b22}.hm1{fill:#0e4429}.hm2{fill:#006d32}.hm3{fill:#26a641}.hm4{fill:#39d353}</style><rect class="c-bg" x="0" y="0" width="790" height="224" rx="8.0"/><rect class="c-border" fill="none" x="0.5" y="0.5" width="789.0" height="223.0" rx="8.0"/><g font-family="ui-monospace,SFMono-Regular,Menlo,Consolas,monospace"><text class="c-muted" x="34.0" y="53.0" font-size="10" text-anchor="end">Mon</text><text class="c-muted" x="34.0" y="81.0" font-size="10" text-anchor="end">Wed</text><text class="c-muted" x="34.0" y="109.0" font-size="10" text-anchor="end">Fri</text><text class="c-muted" x="40.0" y="22.0" font-size="10">Jul</text><text class="c-muted" x="82.0" y="22.0" font-size="10">Aug</text><text class="c-muted" x="152.0" y="22.0" font-size="10">Sep</text><text class="c-muted" x="208.0" y="22.0" font-size="10">Oct</text><text class="c-muted" x="264.0" y="22.0" font-size="10">Nov</text><text class="c-muted" x="334.0" y="22.0" font-size="10">Dec</text><text class="c-muted" x="390.0" y="22.0" font-size="10">Jan</text><text class="c-muted" x="446.0" y="22.0" font-size="10">Feb</text><text class="c-muted" x="502.0" y="22.0" font-size="10">Mar</text><text class="c-muted" x="572.0" y="22.0" font-size="10">Apr</text><text class="c-muted" x="628.0" y="22.0" font-size="10">May</text><text class="c-muted" x="698.0" y="22.0" font-size="10">Jun</text><text class="c-muted" x="754.0" y="22.0" font-size="10">Jul</text><rect class="hm4" x="40.0" y="30.0" width="11" height="11" rx="3.5"/><rect class="hm2" x="40.0" y="44.0" width="11" height="11" rx="3.5"/><rect class="hm1" x="40.0" y="58.0" width="11" height="11" rx="3.5"/><rect class="hm0" x="40.0" y="72.0" width="11" height="11" rx="3.5"/><rect class="hm0" x="40.0" y="86.0" width="11" height="11" rx="3.5"/><rect class="hm0" x="40.0" y="100.0" width="11" height="11" rx="3.5"/><rect class="hm0" x="40.0" y="114.0" width="11" height="11" rx="3.5"/><rect class="hm0" x="54.0" y="30.0" width="11" height="11" rx="3.5"/><rect class="hm1" x="54.0" y="44.0" width="11" height="11" rx="3.5"/><rect class="hm0" x="54.0" y="58.0" width="11" height="11" rx="3.5"/><rect class="hm3" x="54.0" y="72.0" width="11" height="11" rx="3.5"/><rect class="hm0" x="54.0" y="86.0" width="11" height="11" rx="3.5"/><rect class="hm0" x="54.0" y="100.0" width="11" height="11" rx="3.5"/><rect class="hm0" x="54.0" y="114.0" width="11" height="11" rx="3.5"/><rect class="hm0" x="68.0" y="30.0" width="11" height="11" rx="3.5"/><rect class="hm0" x="68.0" y="44.0" width="11" height="11" rx="3.5"/><rect class="hm0" x="68.0" y="58.0" width="11" height="11" rx="3.5"/><rect class="hm0" x="68.0" y="72.0" width="11" height="11" rx="3.5"/><rect class="hm1" x="68.0" y="86.0" width="11" height="11" rx="3.5"/><rect class="hm2" x="68.0" y="100.0" width="11" height="11" rx="3.5"/><rect class="hm1" x="68.0" y="114.0" width="11" height="11" rx="3.5"/><rect class="hm0" x="82.0" y="30.0" width="11" height="11" rx="3.5"/><rect class="hm0" x="82.0" y="44.0" width="11" height="11" rx="3.5"/><rect class="hm0" x="82.0" y="58.0" width="11" height="11" rx="3.5"/><rect class="hm2" x="82.0" y="72.0" width="11" height="11" rx="3.5"/><rect class="hm0" x="82.0" y="86.0" width="11" height="11" rx="3.5"/><rect class="hm0" x="82.0" y="100.0" width="11" height="11" rx="3.5"/><rect class="hm0" x="82.0" y="114.0" width="11" height="11" rx="3.5"/><rect class="hm1" x="96.0" y="30.0" width="11" height="11" rx="3.5"/><rect class="hm3" x="96.0" y="44.0" width="11" height="11" rx="3.5"/><rect class="hm3" x="96.0" y="58.0" width="11" height="11" rx="3.5"/><rect class="hm0" x="96.0" y="72.0" width="11" height="11" rx="3.5"/><rect class="hm1" x="96.0" y="86.0" width="11" height="11" rx="3.5"/><rect class="hm2" x="96.0" y="100.0" width="11" height="11" rx="3.5"/><rect class="hm0" x="96.0" y="114.0" width="11" height="11" rx="3.5"/><rect class="hm0" x="110.0" y="30.0" width="11" height="11" rx="3.5"/><rect class="hm0" x="110.0" y="44.0" width="11" height="11" rx="3.5"/><rect class="hm0" x="110.0" y="58.0" width="11" height="11" rx="3.5"/><rect class="hm0" x="110.0" y="72.0" width="11" height="11" rx="3.5"/><rect class="hm0" x="110.0" y="86.0" width="11" height="11" rx="3.5"/><rect class="hm0" x="110.0" y="100.0" width="11" height="11" rx="3.5"/><rect class="hm0" x="110.0" y="114.0" width="11" height="11" rx="3.5"/><rect class="hm0" x="124.0" y="30.0" width="11" height="11" rx="3.5"/><rect class="hm0" x="124.0" y="44.0" width="11" height="11" rx="3.5"/><rect class="hm0" x="124.0" y="58.0" width="11" height="11" rx="3.5"/><rect class="hm1" x="124.0" y="72.0" width="11" height="11" rx="3.5"/><rect class="hm2" x="124.0" y="86.0" width="11" height="11" rx="3.5"/><rect class="hm0" x="124.0" y="100.0" width="11" height="11" rx="3.5"/><rect class="hm0" x="124.0" y="114.0" width="11" height="11" rx="3.5"/><rect class="hm1" x="138.0" y="30.0" width="11" height="11" rx="3.5"/><rect class="hm0" x="138.0" y="44.0" width="11" height="11" rx="3.5"/><rect class="hm0" x="138.0" y="58.0" width="11" height="11" rx="3.5"/><rect class="hm0" x="138.0" y="72.0" width="11" height="11" rx="3.5"/><rect class="hm0" x="138.0" y="86.0" width="11" height="11" rx="3.5"/><rect class="hm0" x="138.0" y="100.0" width="11" height="11" rx="3.5"/><rect class="hm0" x="138.0" y="114.0" width="11" height="11" rx="3.5"/><rect class="hm0" x="152.0" y="30.0" width="11" height="11" rx="3.5"/><rect class="hm0" x="152.0" y="44.0" width="11" height="11" rx="3.5"/><rect class="hm0" x="152.0" y="58.0" width="11" height="11" rx="3.5"/><rect class="hm0" x="152.0" y="72.0" width="11" height="11" rx="3.5"/><rect class="hm1" x="152.0" y="86.0" width="11" height="11" rx="3.5"/><rect class="hm0" x="152.0" y="100.0" width="11" height="11" rx="3.5"/><rect class="hm1" x="152.0" y="114.0" width="11" height="11" rx="3.5"/><rect class="hm1" x="166.0" y="30.0" width="11" height="11" rx="3.5"/><rect class="hm3" x="166.0" y="44.0" width="11" height="11" rx="3.5"/><rect class="hm0" x="166.0" y="58.0" width="11" height="11" rx="3.5"/><rect class="hm2" x="166.0" y="72.0" width="11" height="11" rx="3.5"/><rect class="hm0" x="166.0" y="86.0" width="11" height="11" rx="3.5"/><rect class="hm0" x="166.0" y="100.0" width="11" height="11" rx="3.5"/><rect class="hm0" x="166.0" y="114.0" width="11" height="11" rx="3.5"/><rect class="hm0" x="180.0" y="30.0" width="11" height="11" rx="3.5"/><rect class="hm2" x="180.0" y="44.0" width="11" height="11" rx="3.5"/><rect class="hm4" x="180.0" y="58.0" width="11" height="11" rx="3.5"/><rect class="hm0" x="180.0" y="72.0" width="11" height="11" rx="3.5"/><rect class="hm0" x="180.0" y="86.0" width="11" height="11" rx="3.5"/><rect class="hm0" x="180.0" y="100.0" width="11" height="11" rx="3.5"/><rect class="hm0" x="180.0" y="114.0" width="11" height="11" rx="3.5"/><rect class="hm0" x="194.0" y="30.0" width="11" height="11" rx="3.5"/><rect class="hm0" x="194.0" y="44.0" width="11" height="11" rx="3.5"/><rect class="hm0" x="194.0" y="58.0" width="11" height="11" rx="3.5"/><rect class="hm2" x="194.0" y="72.0" width="11" height="11" rx="3.5"/><rect class="hm0" x="194.0" y="86.0" width="11" height="11" rx="3.5"/><rect class="hm0" x="194.0" y="100.0" width="11" height="11" rx="3.5"/><rect class="hm0" x="194.0" y="114.0" width="11" height="11" rx="3.5"/><rect class="hm0" x="208.0" y="30.0" width="11" height="11" rx="3.5"/><rect class="hm0" x="208.0" y="44.0" width="11" height="11" rx="3.5"/><rect class="hm0" x="208.0" y="58.0" width="11" height="11" rx="3.5"/><rect class="hm1" x="208.0" y="72.0" width="11" height="11" rx="3.5"/><rect class="hm0" x="208.0" y="86.0" width="11" height="11" rx="3.5"/><rect class="hm0" x="208.0" y="100.0" width="11" height="11" rx="3.5"/><rect class="hm0" x="208.0" y="114.0" width="11" height="11" rx="3.5"/><rect class="hm0" x="222.0" y="30.0" width="11" height="11" rx="3.5"/><rect class="hm0" x="222.0" y="44.0" width="11" height="11" rx="3.5"/><rect class="hm0" x="222.0" y="58.0" width="11" height="11" rx="3.5"/><rect class="hm0" x="222.0" y="72.0" width="11" height="11" rx="3.5"/><rect class="hm0" x="222.0" y="86.0" width="11" height="11" rx="3.5"/><rect class="hm0" x="222.0" y="100.0" width="11" height="11" rx="3.5"/><rect class="hm0" x="222.0" y="114.0" width="11" height="11" rx="3.5"/><rect class="hm0" x="236.0" y="30.0" width="11" height="11" rx="3.5"/><rect class="hm0" x="236.0" y="44.0" width="11" height="11" rx="3.5"/><rect class="hm0" x="236.0" y="58.0" width="11" height="11" rx="3.5"/><rect class="hm0" x="236.0" y="72.0" width="11" height="11" rx="3.5"/><rect class="hm0" x="236.0" y="86.0" width="11" height="11" rx="3.5"/><rect class="hm0" x="236.0" y="100.0" width="11" height="11" rx="3.5"/><rect class="hm0" x="236.0" y="114.0" width="11" height="11" rx="3.5"/><rect class="hm0" x="250.0" y="30.0" width="11" height="11" rx="3.5"/><rect class="hm0" x="250.0" y="44.0" width="11" height="11" rx="3.5"/><rect class="hm0" x="250.0" y="58.0" width="11" height="11" rx="3.5"/><rect class="hm0" x="250.0" y="72.0" width="11" height="11" rx="3.5"/><rect class="hm3" x="250.0" y="86.0" width="11" height="11" rx="3.5"/><rect class="hm4" x="250.0" y="100.0" width="11" height="11" rx="3.5"/><rect class="hm2" x="250.0" y="114.0" width="11" height="11" rx="3.5"/><rect class="hm3" x="264.0" y="30.0" width="11" height="11" rx="3.5"/><rect class="hm0" x="264.0" y="44.0" width="11" height="11" rx="3.5"/><rect class="hm3" x="264.0" y="58.0" width="11" height="11" rx="3.5"/><rect class="hm1" x="264.0" y="72.0" width="11" height="11" rx="3.5"/><rect class="hm1" x="264.0" y="86.0" width="11" height="11" rx="3.5"/><rect class="hm1" x="264.0" y="100.0" width="11" height="11" rx="3.5"/><rect class="hm0" x="264.0" y="114.0" width="11" height="11" rx="3.5"/><rect class="hm0" x="278.0" y="30.0" width="11" height="11" rx="3.5"/><rect class="hm0" x="278.0" y="44.0" width="11" height="11" rx="3.5"/><rect class="hm1" x="278.0" y="58.0" width="11" height="11" rx="3.5"/><rect class="hm1" x="278.0" y="72.0" width="11" height="11" rx="3.5"/><rect class="hm0" x="278.0" y="86.0" width="11" height="11" rx="3.5"/><rect class="hm2" x="278.0" y="100.0" width="11" height="11" rx="3.5"/><rect class="hm0" x="278.0" y="114.0" width="11" height="11" rx="3.5"/><rect class="hm1" x="292.0" y="30.0" width="11" height="11" rx="3.5"/><rect class="hm3" x="292.0" y="44.0" width="11" height="11" rx="3.5"/><rect class="hm1" x="292.0" y="58.0" width="11" height="11" rx="3.5"/><rect class="hm1" x="292.0" y="72.0" width="11" height="11" rx="3.5"/><rect class="hm0" x="292.0" y="86.0" width="11" height="11" rx="3.5"/><rect class="hm0" x="292.0" y="100.0" width="11" height="11" rx="3.5"/><rect class="hm0" x="292.0" y="114.0" width="11" height="11" rx="3.5"/><rect class="hm0" x="306.0" y="30.0" width="11" height="11" rx="3.5"/><rect class="hm0" x="306.0" y="44.0" width="11" height="11" rx="3.5"/><rect class="hm0" x="306.0" y="58.0" width="11" height="11" rx="3.5"/><rect class="hm1" x="306.0" y="72.0" width="11" height="11" rx="3.5"/><rect class="hm0" x="306.0" y="86.0" width="11" height="11" rx="3.5"/><rect class="hm0" x="306.0" y="100.0" width="11" height="11" rx="3.5"/><rect class="hm0" x="306.0" y="114.0" width="11" height="11" rx="3.5"/><rect class="hm0" x="320.0" y="30.0" width="11" height="11" rx="3.5"/><rect class="hm1" x="320.0" y="44.0" width="11" height="11" rx="3.5"/><rect class="hm0" x="320.0" y="58.0" width="11" height="11" rx="3.5"/><rect class="hm0" x="320.0" y="72.0" width="11" height="11" rx="3.5"/><rect class="hm0" x="320.0" y="86.0" width="11" height="11" rx="3.5"/><rect class="hm0" x="320.0" y="100.0" width="11" height="11" rx="3.5"/><rect class="hm0" x="320.0" y="114.0" width="11" height="11" rx="3.5"/><rect class="hm1" x="334.0" y="30.0" width="11" height="11" rx="3.5"/><rect class="hm0" x="334.0" y="44.0" width="11" height="11" rx="3.5"/><rect class="hm1" x="334.0" y="58.0" width="11" height="11" rx="3.5"/><rect class="hm0" x="334.0" y="72.0" width="11" height="11" rx="3.5"/><rect class="hm1" x="334.0" y="86.0" width="11" height="11" rx="3.5"/><rect class="hm0" x="334.0" y="100.0" width="11" height="11" rx="3.5"/><rect class="hm0" x="334.0" y="114.0" width="11" height="11" rx="3.5"/><rect class="hm0" x="348.0" y="30.0" width="11" height="11" rx="3.5"/><rect class="hm0" x="348.0" y="44.0" width="11" height="11" rx="3.5"/><rect class="hm1" x="348.0" y="58.0" width="11" height="11" rx="3.5"/><rect class="hm1" x="348.0" y="72.0" width="11" height="11" rx="3.5"/><rect class="hm0" x="348.0" y="86.0" width="11" height="11" rx="3.5"/><rect class="hm0" x="348.0" y="100.0" width="11" height="11" rx="3.5"/><rect class="hm0" x="348.0" y="114.0" width="11" height="11" rx="3.5"/><rect class="hm0" x="362.0" y="30.0" width="11" height="11" rx="3.5"/><rect class="hm0" x="362.0" y="44.0" width="11" height="11" rx="3.5"/><rect class="hm0" x="362.0" y="58.0" width="11" height="11" rx="3.5"/><rect class="hm0" x="362.0" y="72.0" width="11" height="11" rx="3.5"/><rect class="hm0" x="362.0" y="86.0" width="11" height="11" rx="3.5"/><rect class="hm0" x="362.0" y="100.0" width="11" height="11" rx="3.5"/><rect class="hm2" x="362.0" y="114.0" width="11" height="11" rx="3.5"/><rect class="hm0" x="376.0" y="30.0" width="11" height="11" rx="3.5"/><rect class="hm2" x="376.0" y="44.0" width="11" height="11" rx="3.5"/><rect class="hm2" x="376.0" y="58.0" width="11" height="11" rx="3.5"/><rect class="hm3" x="376.0" y="72.0" width="11" height="11" rx="3.5"/><rect class="hm2" x="376.0" y="86.0" width="11" height="11" rx="3.5"/><rect class="hm0" x="376.0" y="100.0" width="11" height="11" rx="3.5"/><rect class="hm0" x="376.0" y="114.0" width="11" height="11" rx="3.5"/><rect class="hm0" x="390.0" y="30.0" width="11" height="11" rx="3.5"/><rect class="hm2" x="390.0" y="44.0" width="11" height="11" rx="3.5"/><rect class="hm1" x="390.0" y="58.0" width="11" height="11" rx="3.5"/><rect class="hm2" x="390.0" y="72.0" width="11" height="11" rx="3.5"/><rect class="hm1" x="390.0" y="86.0" width="11" height="11" rx="3.5"/><rect class="hm0" x="390.0" y="100.0" width="11" height="11" rx="3.5"/><rect class="hm2" x="390.0" y="114.0" width="11" height="11" rx="3.5"/><rect class="hm0" x="404.0" y="30.0" width="11" height="11" rx="3.5"/><rect class="hm2" x="404.0" y="44.0" width="11" height="11" rx="3.5"/><rect class="hm0" x="404.0" y="58.0" width="11" height="11" rx="3.5"/><rect class="hm1" x="404.0" y="72.0" width="11" height="11" rx="3.5"/><rect class="hm2" x="404.0" y="86.0" width="11" height="11" rx="3.5"/><rect class="hm2" x="404.0" y="100.0" width="11" height="11" rx="3.5"/><rect class="hm0" x="404.0" y="114.0" width="11" height="11" rx="3.5"/><rect class="hm1" x="418.0" y="30.0" width="11" height="11" rx="3.5"/><rect class="hm1" x="418.0" y="44.0" width="11" height="11" rx="3.5"/><rect class="hm2" x="418.0" y="58.0" width="11" height="11" rx="3.5"/><rect class="hm3" x="418.0" y="72.0" width="11" height="11" rx="3.5"/><rect class="hm3" x="418.0" y="86.0" width="11" height="11" rx="3.5"/><rect class="hm2" x="418.0" y="100.0" width="11" height="11" rx="3.5"/><rect class="hm1" x="418.0" y="114.0" width="11" height="11" rx="3.5"/><rect class="hm3" x="432.0" y="30.0" width="11" height="11" rx="3.5"/><rect class="hm3" x="432.0" y="44.0" width="11" height="11" rx="3.5"/><rect class="hm1" x="432.0" y="58.0" width="11" height="11" rx="3.5"/><rect class="hm2" x="432.0" y="72.0" width="11" height="11" rx="3.5"/><rect class="hm2" x="432.0" y="86.0" width="11" height="11" rx="3.5"/><rect class="hm2" x="432.0" y="100.0" width="11" height="11" rx="3.5"/><rect class="hm0" x="432.0" y="114.0" width="11" height="11" rx="3.5"/><rect class="hm2" x="446.0" y="30.0" width="11" height="11" rx="3.5"/><rect class="hm1" x="446.0" y="44.0" width="11" height="11" rx="3.5"/><rect class="hm1" x="446.0" y="58.0" width="11" height="11" rx="3.5"/><rect class="hm0" x="446.0" y="72.0" width="11" height="11" rx="3.5"/><rect class="hm0" x="446.0" y="86.0" width="11" height="11" rx="3.5"/><rect class="hm1" x="446.0" y="100.0" width="11" height="11" rx="3.5"/><rect class="hm0" x="446.0" y="114.0" width="11" height="11" rx="3.5"/><rect class="hm2" x="460.0" y="30.0" width="11" height="11" rx="3.5"/><rect class="hm1" x="460.0" y="44.0" width="11" height="11" rx="3.5"/><rect class="hm2" x="460.0" y="58.0" width="11" height="11" rx="3.5"/><rect class="hm3" x="460.0" y="72.0" width="11" height="11" rx="3.5"/><rect class="hm3" x="460.0" y="86.0" width="11" height="11" rx="3.5"/><rect class="hm2" x="460.0" y="100.0" width="11" height="11" rx="3.5"/><rect class="hm1" x="460.0" y="114.0" width="11" height="11" rx="3.5"/><rect class="hm0" x="474.0" y="30.0" width="11" height="11" rx="3.5"/><rect class="hm3" x="474.0" y="44.0" width="11" height="11" rx="3.5"/><rect class="hm3" x="474.0" y="58.0" width="11" height="11" rx="3.5"/><rect class="hm2" x="474.0" y="72.0" width="11" height="11" rx="3.5"/><rect class="hm2" x="474.0" y="86.0" width="11" height="11" rx="3.5"/><rect class="hm1" x="474.0" y="100.0" width="11" height="11" rx="3.5"/><rect class="hm0" x="474.0" y="114.0" width="11" height="11" rx="3.5"/><rect class="hm1" x="488.0" y="30.0" width="11" height="11" rx="3.5"/><rect class="hm3" x="488.0" y="44.0" width="11" height="11" rx="3.5"/><rect class="hm0" x="488.0" y="58.0" width="11" height="11" rx="3.5"/><rect class="hm1" x="488.0" y="72.0" width="11" height="11" rx="3.5"/><rect class="hm2" x="488.0" y="86.0" width="11" height="11" rx="3.5"/><rect class="hm2" x="488.0" y="100.0" width="11" height="11" rx="3.5"/><rect class="hm0" x="488.0" y="114.0" width="11" height="11" rx="3.5"/><rect class="hm0" x="502.0" y="30.0" width="11" height="11" rx="3.5"/><rect class="hm2" x="502.0" y="44.0" width="11" height="11" rx="3.5"/><rect class="hm3" x="502.0" y="58.0" width="11" height="11" rx="3.5"/><rect class="hm2" x="502.0" y="72.0" width="11" height="11" rx="3.5"/><rect class="hm3" x="502.0" y="86.0" width="11" height="11" rx="3.5"/><rect class="hm2" x="502.0" y="100.0" width="11" height="11" rx="3.5"/><rect class="hm0" x="502.0" y="114.0" width="11" height="11" rx="3.5"/><rect class="hm0" x="516.0" y="30.0" width="11" height="11" rx="3.5"/><rect class="hm2" x="516.0" y="44.0" width="11" height="11" rx="3.5"/><rect class="hm3" x="516.0" y="58.0" width="11" height="11" rx="3.5"/><rect class="hm2" x="516.0" y="72.0" width="11" height="11" rx="3.5"/><rect class="hm1" x="516.0" y="86.0" width="11" height="11" rx="3.5"/><rect class="hm2" x="516.0" y="100.0" width="11" height="11" rx="3.5"/><rect class="hm1" x="516.0" y="114.0" width="11" height="11" rx="3.5"/><rect class="hm0" x="530.0" y="30.0" width="11" height="11" rx="3.5"/><rect class="hm3" x="530.0" y="44.0" width="11" height="11" rx="3.5"/><rect class="hm3" x="530.0" y="58.0" width="11" height="11" rx="3.5"/><rect class="hm3" x="530.0" y="72.0" width="11" height="11" rx="3.5"/><rect class="hm2" x="530.0" y="86.0" width="11" height="11" rx="3.5"/><rect class="hm4" x="530.0" y="100.0" width="11" height="11" rx="3.5"/><rect class="hm4" x="530.0" y="114.0" width="11" height="11" rx="3.5"/><rect class="hm4" x="544.0" y="30.0" width="11" height="11" rx="3.5"/><rect class="hm3" x="544.0" y="44.0" width="11" height="11" rx="3.5"/><rect class="hm3" x="544.0" y="58.0" width="11" height="11" rx="3.5"/><rect class="hm0" x="544.0" y="72.0" width="11" height="11" rx="3.5"/><rect class="hm2" x="544.0" y="86.0" width="11" height="11" rx="3.5"/><rect class="hm3" x="544.0" y="100.0" width="11" height="11" rx="3.5"/><rect class="hm0" x="544.0" y="114.0" width="11" height="11" rx="3.5"/><rect class="hm2" x="558.0" y="30.0" width="11" height="11" rx="3.5"/><rect class="hm2" x="558.0" y="44.0" width="11" height="11" rx="3.5"/><rect class="hm1" x="558.0" y="58.0" width="11" height="11" rx="3.5"/><rect class="hm2" x="558.0" y="72.0" width="11" height="11" rx="3.5"/><rect class="hm2" x="558.0" y="86.0" width="11" height="11" rx="3.5"/><rect class="hm2" x="558.0" y="100.0" width="11" height="11" rx="3.5"/><rect class="hm1" x="558.0" y="114.0" width="11" height="11" rx="3.5"/><rect class="hm0" x="572.0" y="30.0" width="11" height="11" rx="3.5"/><rect class="hm0" x="572.0" y="44.0" width="11" height="11" rx="3.5"/><rect class="hm0" x="572.0" y="58.0" width="11" height="11" rx="3.5"/><rect class="hm0" x="572.0" y="72.0" width="11" height="11" rx="3.5"/><rect class="hm0" x="572.0" y="86.0" width="11" height="11" rx="3.5"/><rect class="hm2" x="572.0" y="100.0" width="11" height="11" rx="3.5"/><rect class="hm0" x="572.0" y="114.0" width="11" height="11" rx="3.5"/><rect class="hm0" x="586.0" y="30.0" width="11" height="11" rx="3.5"/><rect class="hm1" x="586.0" y="44.0" width="11" height="11" rx="3.5"/><rect class="hm3" x="586.0" y="58.0" width="11" height="11" rx="3.5"/><rect class="hm1" x="586.0" y="72.0" width="11" height="11" rx="3.5"/><rect class="hm4" x="586.0" y="86.0" width="11" height="11" rx="3.5"/><rect class="hm0" x="586.0" y="100.0" width="11" height="11" rx="3.5"/><rect class="hm2" x="586.0" y="114.0" width="11" height="11" rx="3.5"/><rect class="hm1" x="600.0" y="30.0" width="11" height="11" rx="3.5"/><rect class="hm3" x="600.0" y="44.0" width="11" height="11" rx="3.5"/><rect class="hm4" x="600.0" y="58.0" width="11" height="11" rx="3.5"/><rect class="hm1" x="600.0" y="72.0" width="11" height="11" rx="3.5"/><rect class="hm1" x="600.0" y="86.0" width="11" height="11" rx="3.5"/><rect class="hm1" x="600.0" y="100.0" width="11" height="11" rx="3.5"/><rect class="hm1" x="600.0" y="114.0" width="11" height="11" rx="3.5"/><rect class="hm0" x="614.0" y="30.0" width="11" height="11" rx="3.5"/><rect class="hm2" x="614.0" y="44.0" width="11" height="11" rx="3.5"/><rect class="hm3" x="614.0" y="58.0" width="11" height="11" rx="3.5"/><rect class="hm0" x="614.0" y="72.0" width="11" height="11" rx="3.5"/><rect class="hm4" x="614.0" y="86.0" width="11" height="11" rx="3.5"/><rect class="hm2" x="614.0" y="100.0" width="11" height="11" rx="3.5"/><rect class="hm3" x="614.0" y="114.0" width="11" height="11" rx="3.5"/><rect class="hm4" x="628.0" y="30.0" width="11" height="11" rx="3.5"/><rect class="hm4" x="628.0" y="44.0" width="11" height="11" rx="3.5"/><rect class="hm3" x="628.0" y="58.0" width="11" height="11" rx="3.5"/><rect class="hm4" x="628.0" y="72.0" width="11" height="11" rx="3.5"/><rect class="hm1" x="628.0" y="86.0" width="11" height="11" rx="3.5"/><rect class="hm4" x="628.0" y="100.0" width="11" height="11" rx="3.5"/><rect class="hm4" x="628.0" y="114.0" width="11" height="11" rx="3.5"/><rect class="hm4" x="642.0" y="30.0" width="11" height="11" rx="3.5"/><rect class="hm2" x="642.0" y="44.0" width="11" height="11" rx="3.5"/><rect class="hm4" x="642.0" y="58.0" width="11" height="11" rx="3.5"/><rect class="hm4" x="642.0" y="72.0" width="11" height="11" rx="3.5"/><rect class="hm4" x="642.0" y="86.0" width="11" height="11" rx="3.5"/><rect class="hm4" x="642.0" y="100.0" width="11" height="11" rx="3.5"/><rect class="hm3" x="642.0" y="114.0" width="11" height="11" rx="3.5"/><rect class="hm4" x="656.0" y="30.0" width="11" height="11" rx="3.5"/><rect class="hm4" x="656.0" y="44.0" width="11" height="11" rx="3.5"/><rect class="hm4" x="656.0" y="58.0" width="11" height="11" rx="3.5"/><rect class="hm4" x="656.0" y="72.0" width="11" height="11" rx="3.5"/><rect class="hm4" x="656.0" y="86.0" width="11" height="11" rx="3.5"/><rect class="hm4" x="656.0" y="100.0" width="11" height="11" rx="3.5"/><rect class="hm4" x="656.0" y="114.0" width="11" height="11" rx="3.5"/><rect class="hm1" x="670.0" y="30.0" width="11" height="11" rx="3.5"/><rect class="hm4" x="670.0" y="44.0" width="11" height="11" rx="3.5"/><rect class="hm4" x="670.0" y="58.0" width="11" height="11" rx="3.5"/><rect class="hm2" x="670.0" y="72.0" width="11" height="11" rx="3.5"/><rect class="hm4" x="670.0" y="86.0" width="11" height="11" rx="3.5"/><rect class="hm4" x="670.0" y="100.0" width="11" height="11" rx="3.5"/><rect class="hm4" x="670.0" y="114.0" width="11" height="11" rx="3.5"/><rect class="hm3" x="684.0" y="30.0" width="11" height="11" rx="3.5"/><rect class="hm4" x="684.0" y="44.0" width="11" height="11" rx="3.5"/><rect class="hm4" x="684.0" y="58.0" width="11" height="11" rx="3.5"/><rect class="hm4" x="684.0" y="72.0" width="11" height="11" rx="3.5"/><rect class="hm3" x="684.0" y="86.0" width="11" height="11" rx="3.5"/><rect class="hm4" x="684.0" y="100.0" width="11" height="11" rx="3.5"/><rect class="hm4" x="684.0" y="114.0" width="11" height="11" rx="3.5"/><rect class="hm4" x="698.0" y="30.0" width="11" height="11" rx="3.5"/><rect class="hm4" x="698.0" y="44.0" width="11" height="11" rx="3.5"/><rect class="hm4" x="698.0" y="58.0" width="11" height="11" rx="3.5"/><rect class="hm4" x="698.0" y="72.0" width="11" height="11" rx="3.5"/><rect class="hm4" x="698.0" y="86.0" width="11" height="11" rx="3.5"/><rect class="hm4" x="698.0" y="100.0" width="11" height="11" rx="3.5"/><rect class="hm4" x="698.0" y="114.0" width="11" height="11" rx="3.5"/><rect class="hm4" x="712.0" y="30.0" width="11" height="11" rx="3.5"/><rect class="hm4" x="712.0" y="44.0" width="11" height="11" rx="3.5"/><rect class="hm3" x="712.0" y="58.0" width="11" height="11" rx="3.5"/><rect class="hm3" x="712.0" y="72.0" width="11" height="11" rx="3.5"/><rect class="hm3" x="712.0" y="86.0" width="11" height="11" rx="3.5"/><rect class="hm3" x="712.0" y="100.0" width="11" height="11" rx="3.5"/><rect class="hm3" x="712.0" y="114.0" width="11" height="11" rx="3.5"/><rect class="hm4" x="726.0" y="30.0" width="11" height="11" rx="3.5"/><rect class="hm4" x="726.0" y="44.0" width="11" height="11" rx="3.5"/><rect class="hm3" x="726.0" y="58.0" width="11" height="11" rx="3.5"/><rect class="hm3" x="726.0" y="72.0" width="11" height="11" rx="3.5"/><rect class="hm4" x="726.0" y="86.0" width="11" height="11" rx="3.5"/><rect class="hm2" x="726.0" y="100.0" width="11" height="11" rx="3.5"/><rect class="hm0" x="726.0" y="114.0" width="11" height="11" rx="3.5"/><rect class="hm0" x="740.0" y="30.0" width="11" height="11" rx="3.5"/><rect class="hm4" x="740.0" y="44.0" width="11" height="11" rx="3.5"/><rect class="hm3" x="740.0" y="58.0" width="11" height="11" rx="3.5"/><rect class="hm4" x="740.0" y="72.0" width="11" height="11" rx="3.5"/><rect class="hm3" x="740.0" y="86.0" width="11" height="11" rx="3.5"/><rect class="hm2" x="740.0" y="100.0" width="11" height="11" rx="3.5"/><rect class="hm0" x="740.0" y="114.0" width="11" height="11" rx="3.5"/><rect class="hm2" x="754.0" y="30.0" width="11" height="11" rx="3.5"/><rect class="hm1" x="754.0" y="44.0" width="11" height="11" rx="3.5"/><rect class="hm0" x="754.0" y="58.0" width="11" height="11" rx="3.5"/><rect class="hm2" x="754.0" y="72.0" width="11" height="11" rx="3.5"/><rect class="hm1" x="754.0" y="86.0" width="11" height="11" rx="3.5"/><rect class="hm0" x="754.0" y="100.0" width="11" height="11" rx="3.5"/><rect class="hm3" x="754.0" y="114.0" width="11" height="11" rx="3.5"/><rect class="hm4" x="768.0" y="30.0" width="11" height="11" rx="3.5"/><text class="c-muted" x="670.0" y="152.0" font-size="10" text-anchor="end">Less</text><rect x="676.0" y="143.0" width="11" height="11" rx="3.5" fill="#161b22"/><rect x="690.0" y="143.0" width="11" height="11" rx="3.5" fill="#0e4429"/><rect x="704.0" y="143.0" width="11" height="11" rx="3.5" fill="#006d32"/><rect x="718.0" y="143.0" width="11" height="11" rx="3.5" fill="#26a641"/><rect x="732.0" y="143.0" width="11" height="11" rx="3.5" fill="#39d353"/><text class="c-muted" x="746.0" y="152.0" font-size="10">More</text><line class="c-border" stroke-width="1" x1="12" y1="163.0" x2="778.0" y2="163.0"/><text class="c-muted" x="12.0" y="187.0" font-size="12"><tspan class="c-chart" font-weight="700">3,144</tspan> contributions in the last year</text><text class="c-muted" x="778.0" y="187.0" font-size="12" text-anchor="end">2025-07-13 → 2026-07-12</text><text class="c-muted" x="12.0" y="209.0" font-size="12">current streak <tspan class="c-accent" font-weight="700">2</tspan> days · longest <tspan class="c-accent" font-weight="700">58</tspan> days</text><text class="c-muted" x="778.0" y="209.0" font-size="12" text-anchor="end">best day <tspan class="c-amber" font-weight="700">148</tspan> on 2026-05-18</text></g></svg>