<svg xmlns="http://www.w3.org/2000/svg" width="305" height="195" viewBox="0 0 305 195" role="img" aria-label="Top languages for caisergan" font-family="-apple-system,BlinkMacSystemFont,'Segoe UI',Helvetica,Arial,sans-serif"><style>.c-bg{fill:#ffffff}.c-s2{fill:#fafafa}.c-border{stroke:#e4e4e7}.c-fg{fill:#09090b}.c-muted{fill:#71717a}.c-accent{fill:#18181b}.c-chart{fill:#18181b}.c-chart-s{stroke:#18181b}.c-green{fill:#16a34a}.c-red{fill:#dc2626}.c-amber{fill:#d97706}.hm0{fill:#ebedf0}.hm1{fill:#9be9a8}.hm2{fill:#40c463}.hm3{fill:#30a14e}.hm4{fill:#216e39}@media (prefers-color-scheme: dark){.c-bg{fill:#131316}.c-s2{fill:#1a1a1e}.c-border{stroke:#26262b}.c-fg{fill:#fafafa}.c-muted{fill:#8b8b94}.c-accent{fill:#fafafa}.c-chart{fill:#9e9e9f}.c-chart-s{stroke:#9e9e9f}.c-green{fill:#16a34a}.c-red{fill:#dc2626}.c-amber{fill:#e8a33d}.hm0{fill:#161b22}.hm1{fill:#0e4429}.hm2{fill:#006d32}.hm3{fill:#26a641}.hm4{fill:#39d353}}</style><rect class="c-bg" x="0" y="0" width="305" height="195" rx="8.0"/><rect class="c-border" fill="none" x="0.5" y="0.5" width="304.0" height="194.0" rx="8.0"/><text class="c-accent" x="20" y="30" font-size="14" font-weight="600">Top languages</text><clipPath id="lbar"><rect x="20.0" y="44.0" width="265.0" height="10.0" rx="5"/></clipPath><g clip-path="url(#lbar)"><rect x="20.0" y="44.0" width="166.9" height="10.0" fill="#3178c6"/><rect x="186.9" y="44.0" width="51.2" height="10.0" fill="#3572A5"/><rect x="238.0" y="44.0" width="16.0" height="10.0" fill="#f1e05a"/><rect x="254.1" y="44.0" width="14.5" height="10.0" fill="#00ADD8"/><rect x="268.6" y="44.0" width="10.3" height="10.0" fill="#00B4AB"/><rect x="278.8" y="44.0" width="2.5" height="10.0" fill="#e34c26"/><rect x="281.3" y="44.0" width="3.7" height="10.0" fill="#8b8b94"/></g><circle cx="24.0" cy="78.0" r="4" fill="#3178c6"/><text class="c-fg" x="34.0" y="82.0" font-size="12">TypeScript</text><text class="c-muted" x="145.0" y="82.0" font-size="12" text-anchor="end">63.0%</text><circle cx="164.0" cy="78.0" r="4" fill="#3572A5"/><text class="c-fg" x="174.0" y="82.0" font-size="12">Python</text><text class="c-muted" x="285.0" y="82.0" font-size="12" text-anchor="end">19.3%</text><circle cx="24.0" cy="104.0" r="4" fill="#f1e05a"/><text class="c-fg" x="34.0" y="108.0" font-size="12">JavaScript</text><text class="c-muted" x="145.0" y="108.0" font-size="12" text-anchor="end">6.0%</text><circle cx="164.0" cy="104.0" r="4" fill="#00ADD8"/><text class="c-fg" x="174.0" y="108.0" font-size="12">Go</text><text class="c-muted" x="285.0" y="108.0" font-size="12" text-anchor="end">5.5%</text><circle cx="24.0" cy="130.0" r="4" fill="#00B4AB"/><text class="c-fg" x="34.0" y="134.0" font-size="12">Dart</text><text class="c-muted" x="145.0" y="134.0" font-size="12" text-anchor="end">3.9%</text><circle cx="164.0" cy="130.0" r="4" fill="#e34c26"/><text class="c-fg" x="174.0" y="134.0" font-size="12">HTML</text><text class="c-muted" x="285.0" y="134.0" font-size="12" text-anchor="end">0.9%</text><circle cx="24.0" cy="156.0" r="4" fill="#8b8b94"/><text class="c-fg" x="34.0" y="160.0" font-size="12">Other</text><text class="c-muted" x="145.0" y="160.0" font-size="12" text-anchor="end">1.4%</text></svg>