<svg xmlns="http://www.w3.org/2000/svg" width="480" height="195" viewBox="0 0 480 195" role="img" aria-label="GitHub stats overview for caisergan" font-family="-apple-system,BlinkMacSystemFont,'Segoe UI',Helvetica,Arial,sans-serif"><style>.c-bg{fill:#ffffff}.c-s2{fill:#fafafa}.c-border{stroke:#e4e4e7}.c-fg{fill:#09090b}.c-muted{fill:#71717a}.c-accent{fill:#18181b}.c-chart{fill:#18181b}.c-chart-s{stroke:#18181b}.c-green{fill:#16a34a}.c-red{fill:#dc2626}.c-amber{fill:#d97706}.hm0{fill:#ebedf0}.hm1{fill:#9be9a8}.hm2{fill:#40c463}.hm3{fill:#30a14e}.hm4{fill:#216e39}@media (prefers-color-scheme: dark){.c-bg{fill:#131316}.c-s2{fill:#1a1a1e}.c-border{stroke:#26262b}.c-fg{fill:#fafafa}.c-muted{fill:#8b8b94}.c-accent{fill:#fafafa}.c-chart{fill:#9e9e9f}.c-chart-s{stroke:#9e9e9f}.c-green{fill:#16a34a}.c-red{fill:#dc2626}.c-amber{fill:#e8a33d}.hm0{fill:#161b22}.hm1{fill:#0e4429}.hm2{fill:#006d32}.hm3{fill:#26a641}.hm4{fill:#39d353}}</style><rect class="c-bg" x="0" y="0" width="480" height="195" rx="8.0"/><rect class="c-border" fill="none" x="0.5" y="0.5" width="479.0" height="194.0" rx="8.0"/><text class="c-accent" x="20" y="32" font-size="16" font-weight="600">GitHub Stats — caisergan</text><rect class="c-s2" x="305.8" y="19" width="154.2" height="18" rx="9"/><rect class="c-border" fill="none" x="305.8" y="19" width="154.2" height="18" rx="9"/><text class="c-muted" x="315.8" y="31.5" font-size="11">incl. 11 private repos</text><text class="c-muted" x="20" y="68" font-size="13">Total commits</text><text class="c-fg" x="200" y="68" font-size="13" font-weight="600" text-anchor="end">5.6k</text><text class="c-muted" x="20" y="94" font-size="13">PRs merged</text><text class="c-fg" x="200" y="94" font-size="13" font-weight="600" text-anchor="end">65</text><text class="c-muted" x="20" y="120" font-size="13">Issues closed</text><text class="c-fg" x="200" y="120" font-size="13" font-weight="600" text-anchor="end">1</text><text class="c-muted" x="20" y="146" font-size="13">Lines changed</text><text x="200" y="146" font-size="13" font-weight="600" text-anchor="end"><tspan class="c-green">+2.8M</tspan> <tspan class="c-red">−513k</tspan></text><text class="c-fg" x="335" y="60" font-size="24" font-weight="600" text-anchor="middle">11.0</text><text class="c-muted" x="335" y="75" font-size="12" text-anchor="middle">commits / day</text><g transform="translate(210.0 105.0)"><path class="c-chart" fill-opacity="0.15" d="M2.0 45.0 L2.0 42.7 L2.5 42.2 L3.0 39.4 L3.4 40.9 L3.9 41.7 L4.4 41.2 L4.9 42.2 L5.4 42.5 L5.9 42.0 L6.3 41.2 L6.8 41.2 L7.3 42.5 L7.8 42.7 L8.3 41.5 L8.8 42.0 L9.2 39.9 L9.7 40.4 L10.2 42.5 L10.7 42.5 L11.2 42.2 L11.7 40.9 L12.1 39.4 L12.6 42.0 L13.1 37.6 L13.6 42.5 L14.1 40.9 L14.6 38.6 L15.0 41.2 L15.5 39.1 L16.0 37.8 L16.5 42.0 L17.0 39.1 L17.5 42.2 L17.9 41.5 L18.4 42.7 L18.9 39.4 L19.4 40.9 L19.9 40.4 L20.4 40.4 L20.8 42.0 L21.3 42.7 L21.8 41.2 L22.3 38.9 L22.8 41.2 L23.3 40.4 L23.7 40.4 L24.2 42.5 L24.7 40.7 L25.2 42.2 L25.7 42.7 L26.2 42.2 L26.6 42.0 L27.1 42.5 L27.6 41.5 L28.1 42.0 L28.6 42.5 L29.1 42.5 L29.5 42.7 L30.0 42.5 L30.5 42.5 L31.0 40.9 L31.5 42.5 L32.0 40.4 L32.4 41.2 L32.9 42.7 L33.4 40.7 L33.9 42.7 L34.4 42.0 L34.9 42.2 L35.3 42.5 L35.8 41.7 L36.3 42.5 L36.8 42.0 L37.3 41.7 L37.8 40.7 L38.2 42.7 L38.7 41.7 L39.2 42.2 L39.7 42.7 L40.2 40.7 L40.7 42.2 L41.1 41.5 L41.6 41.7 L42.1 42.5 L42.6 41.2 L43.1 42.5 L43.6 42.5 L44.0 42.7 L44.5 42.2 L45.0 42.2 L45.5 41.5 L46.0 42.0 L46.5 42.5 L46.9 42.0 L47.4 42.2 L47.9 42.7 L48.4 42.0 L48.9 40.9 L49.4 41.2 L49.8 41.7 L50.3 41.7 L50.8 41.7 L51.3 40.9 L51.8 40.7 L52.3 41.5 L52.7 42.7 L53.2 42.2 L53.7 42.2 L54.2 42.2 L54.7 42.2 L55.2 42.7 L55.6 39.4 L56.1 41.7 L56.6 42.5 L57.1 39.9 L57.6 40.7 L58.1 41.5 L58.5 39.1 L59.0 42.5 L59.5 42.5 L60.0 40.9 L60.5 42.5 L61.0 42.7 L61.4 41.2 L61.9 42.7 L62.4 39.9 L62.9 42.7 L63.4 41.7 L63.9 42.7 L64.3 42.7 L64.8 42.5 L65.3 40.7 L65.8 40.2 L66.3 42.7 L66.8 42.7 L67.2 42.7 L67.7 42.0 L68.2 41.5 L68.7 41.5 L69.2 37.8 L69.7 42.5 L70.1 42.2 L70.6 39.6 L71.1 41.5 L71.6 38.9 L72.1 40.9 L72.6 42.2 L73.0 42.0 L73.5 42.5 L74.0 39.1 L74.5 42.7 L75.0 42.2 L75.5 41.5 L75.9 42.7 L76.4 42.7 L76.9 41.5 L77.4 42.7 L77.9 42.7 L78.4 38.6 L78.8 36.0 L79.3 40.9 L79.8 42.2 L80.3 42.7 L80.8 42.5 L81.3 41.5 L81.7 42.2 L82.2 42.5 L82.7 40.4 L83.2 42.7 L83.7 42.7 L84.2 42.5 L84.6 41.2 L85.1 40.4 L85.6 42.5 L86.1 42.5 L86.6 42.7 L87.1 39.9 L87.5 40.2 L88.0 42.2 L88.5 42.2 L89.0 42.7 L89.5 41.2 L90.0 38.4 L90.4 42.2 L90.9 40.7 L91.4 42.2 L91.9 42.2 L92.4 42.7 L92.9 42.2 L93.3 40.7 L93.8 42.7 L94.3 42.0 L94.8 39.9 L95.3 42.7 L95.8 42.2 L96.2 42.7 L96.7 40.4 L97.2 39.4 L97.7 41.5 L98.2 42.0 L98.7 41.7 L99.1 40.9 L99.6 39.6 L100.1 40.9 L100.6 42.7 L101.1 42.2 L101.6 40.9 L102.0 39.6 L102.5 42.5 L103.0 42.7 L103.5 42.7 L104.0 39.6 L104.5 42.7 L104.9 39.1 L105.4 42.2 L105.9 39.4 L106.4 42.7 L106.9 41.5 L107.4 41.5 L107.8 35.5 L108.3 34.7 L108.8 41.7 L109.3 42.7 L109.8 42.5 L110.3 39.6 L110.7 40.9 L111.2 42.2 L111.7 39.6 L112.2 39.6 L112.7 38.6 L113.2 42.5 L113.6 42.2 L114.1 42.7 L114.6 41.7 L115.1 41.5 L115.6 41.2 L116.1 42.7 L116.5 42.7 L117.0 40.7 L117.5 39.1 L118.0 42.7 L118.5 41.2 L119.0 42.7 L119.4 40.2 L119.9 42.2 L120.4 40.7 L120.9 41.5 L121.4 42.0 L121.9 42.7 L122.3 42.7 L122.8 42.2 L123.3 42.2 L123.8 41.5 L124.3 40.4 L124.8 41.2 L125.2 37.1 L125.7 42.7 L126.2 42.5 L126.7 42.0 L127.2 38.6 L127.7 40.4 L128.1 41.7 L128.6 42.5 L129.1 41.7 L129.6 36.3 L130.1 40.4 L130.6 42.0 L131.0 42.7 L131.5 42.2 L132.0 42.7 L132.5 42.7 L133.0 41.2 L133.5 41.7 L133.9 42.7 L134.4 42.7 L134.9 42.7 L135.4 40.4 L135.9 39.6 L136.4 36.8 L136.8 42.2 L137.3 37.8 L137.8 42.2 L138.3 39.6 L138.8 42.5 L139.3 42.7 L139.7 42.5 L140.2 39.6 L140.7 41.2 L141.2 42.2 L141.7 42.5 L142.2 42.7 L142.6 41.2 L143.1 41.7 L143.6 42.0 L144.1 39.6 L144.6 42.7 L145.1 42.7 L145.5 42.2 L146.0 38.6 L146.5 41.7 L147.0 42.7 L147.5 42.0 L148.0 41.7 L148.4 40.2 L148.9 39.9 L149.4 42.0 L149.9 42.0 L150.4 42.2 L150.9 42.0 L151.3 42.5 L151.8 42.7 L152.3 42.0 L152.8 41.2 L153.3 42.5 L153.8 42.5 L154.2 41.7 L154.7 42.5 L155.2 38.6 L155.7 42.0 L156.2 40.9 L156.7 39.4 L157.1 41.2 L157.6 41.2 L158.1 42.0 L158.6 39.4 L159.1 38.1 L159.6 40.9 L160.0 41.7 L160.5 41.5 L161.0 42.2 L161.5 40.7 L162.0 42.2 L162.5 38.6 L162.9 39.6 L163.4 39.4 L163.9 39.1 L164.4 42.0 L164.9 41.7 L165.4 41.7 L165.8 42.7 L166.3 41.7 L166.8 42.5 L167.3 40.7 L167.8 42.0 L168.3 42.0 L168.7 42.5 L169.2 42.0 L169.7 41.5 L170.2 42.7 L170.7 39.1 L171.2 42.0 L171.6 41.5 L172.1 39.4 L172.6 39.6 L173.1 41.7 L173.6 42.7 L174.1 40.9 L174.5 38.4 L175.0 42.7 L175.5 42.0 L176.0 41.2 L176.5 41.2 L177.0 36.3 L177.4 42.5 L177.9 42.7 L178.4 40.2 L178.9 42.0 L179.4 42.5 L179.9 38.4 L180.3 39.4 L180.8 41.2 L181.3 38.9 L181.8 40.2 L182.3 42.0 L182.8 42.2 L183.2 37.6 L183.7 38.9 L184.2 38.9 L184.7 41.7 L185.2 40.2 L185.7 42.5 L186.1 41.7 L186.6 38.6 L187.1 39.4 L187.6 42.5 L188.1 39.6 L188.6 41.2 L189.0 40.7 L189.5 40.2 L190.0 42.2 L190.5 38.9 L191.0 41.2 L191.5 38.9 L191.9 41.2 L192.4 38.9 L192.9 40.7 L193.4 40.7 L193.9 41.7 L194.4 42.0 L194.8 42.0 L195.3 42.5 L195.8 38.1 L196.3 39.6 L196.8 38.9 L197.3 41.7 L197.7 35.0 L198.2 37.1 L198.7 27.5 L199.2 40.4 L199.7 39.9 L200.2 40.2 L200.6 38.6 L201.1 41.2 L201.6 42.2 L202.1 42.7 L202.6 41.7 L203.1 41.7 L203.5 41.2 L204.0 42.7 L204.5 42.2 L205.0 36.3 L205.5 40.9 L206.0 42.5 L206.4 36.3 L206.9 42.2 L207.4 36.3 L207.9 41.5 L208.4 42.7 L208.9 36.0 L209.3 38.1 L209.8 42.5 L210.3 42.5 L210.8 41.2 L211.3 42.2 L211.8 40.9 L212.2 38.4 L212.7 41.5 L213.2 26.8 L213.7 42.0 L214.2 40.9 L214.7 28.3 L215.1 37.1 L215.6 40.4 L216.1 34.5 L216.6 40.7 L217.1 36.3 L217.6 32.9 L218.0 29.3 L218.5 40.7 L219.0 37.3 L219.5 28.8 L220.0 30.9 L220.5 32.7 L220.9 38.9 L221.4 6.6 L221.9 2.0 L222.4 34.0 L222.9 34.5 L223.4 30.4 L223.8 25.5 L224.3 37.6 L224.8 42.5 L225.3 35.5 L225.8 20.1 L226.3 41.7 L226.7 34.2 L227.2 15.7 L227.7 27.0 L228.2 37.6 L228.7 28.8 L229.2 36.6 L229.6 30.6 L230.1 39.4 L230.6 37.3 L231.1 33.7 L231.6 26.2 L232.1 32.7 L232.5 28.8 L233.0 34.5 L233.5 34.0 L234.0 37.1 L234.5 28.3 L235.0 16.7 L235.4 35.0 L235.9 40.9 L236.4 39.4 L236.9 39.4 L237.4 40.9 L237.9 40.2 L238.3 35.3 L238.8 25.2 L239.3 40.7 L239.8 39.4 L240.3 24.4 L240.8 41.7 L241.2 36.8 L241.7 36.8 L242.2 38.6 L242.7 36.8 L243.2 38.6 L243.7 40.7 L244.1 39.6 L244.6 42.7 L245.1 42.0 L245.6 36.8 L246.1 39.9 L246.6 10.0 L247.0 39.6 L247.5 37.3 L248.0 42.5 L248.0 45.0 Z"/><path class="c-chart-s" fill="none" stroke-width="1.5" d="M2.0 42.7 L2.5 42.2 L3.0 39.4 L3.4 40.9 L3.9 41.7 L4.4 41.2 L4.9 42.2 L5.4 42.5 L5.9 42.0 L6.3 41.2 L6.8 41.2 L7.3 42.5 L7.8 42.7 L8.3 41.5 L8.8 42.0 L9.2 39.9 L9.7 40.4 L10.2 42.5 L10.7 42.5 L11.2 42.2 L11.7 40.9 L12.1 39.4 L12.6 42.0 L13.1 37.6 L13.6 42.5 L14.1 40.9 L14.6 38.6 L15.0 41.2 L15.5 39.1 L16.0 37.8 L16.5 42.0 L17.0 39.1 L17.5 42.2 L17.9 41.5 L18.4 42.7 L18.9 39.4 L19.4 40.9 L19.9 40.4 L20.4 40.4 L20.8 42.0 L21.3 42.7 L21.8 41.2 L22.3 38.9 L22.8 41.2 L23.3 40.4 L23.7 40.4 L24.2 42.5 L24.7 40.7 L25.2 42.2 L25.7 42.7 L26.2 42.2 L26.6 42.0 L27.1 42.5 L27.6 41.5 L28.1 42.0 L28.6 42.5 L29.1 42.5 L29.5 42.7 L30.0 42.5 L30.5 42.5 L31.0 40.9 L31.5 42.5 L32.0 40.4 L32.4 41.2 L32.9 42.7 L33.4 40.7 L33.9 42.7 L34.4 42.0 L34.9 42.2 L35.3 42.5 L35.8 41.7 L36.3 42.5 L36.8 42.0 L37.3 41.7 L37.8 40.7 L38.2 42.7 L38.7 41.7 L39.2 42.2 L39.7 42.7 L40.2 40.7 L40.7 42.2 L41.1 41.5 L41.6 41.7 L42.1 42.5 L42.6 41.2 L43.1 42.5 L43.6 42.5 L44.0 42.7 L44.5 42.2 L45.0 42.2 L45.5 41.5 L46.0 42.0 L46.5 42.5 L46.9 42.0 L47.4 42.2 L47.9 42.7 L48.4 42.0 L48.9 40.9 L49.4 41.2 L49.8 41.7 L50.3 41.7 L50.8 41.7 L51.3 40.9 L51.8 40.7 L52.3 41.5 L52.7 42.7 L53.2 42.2 L53.7 42.2 L54.2 42.2 L54.7 42.2 L55.2 42.7 L55.6 39.4 L56.1 41.7 L56.6 42.5 L57.1 39.9 L57.6 40.7 L58.1 41.5 L58.5 39.1 L59.0 42.5 L59.5 42.5 L60.0 40.9 L60.5 42.5 L61.0 42.7 L61.4 41.2 L61.9 42.7 L62.4 39.9 L62.9 42.7 L63.4 41.7 L63.9 42.7 L64.3 42.7 L64.8 42.5 L65.3 40.7 L65.8 40.2 L66.3 42.7 L66.8 42.7 L67.2 42.7 L67.7 42.0 L68.2 41.5 L68.7 41.5 L69.2 37.8 L69.7 42.5 L70.1 42.2 L70.6 39.6 L71.1 41.5 L71.6 38.9 L72.1 40.9 L72.6 42.2 L73.0 42.0 L73.5 42.5 L74.0 39.1 L74.5 42.7 L75.0 42.2 L75.5 41.5 L75.9 42.7 L76.4 42.7 L76.9 41.5 L77.4 42.7 L77.9 42.7 L78.4 38.6 L78.8 36.0 L79.3 40.9 L79.8 42.2 L80.3 42.7 L80.8 42.5 L81.3 41.5 L81.7 42.2 L82.2 42.5 L82.7 40.4 L83.2 42.7 L83.7 42.7 L84.2 42.5 L84.6 41.2 L85.1 40.4 L85.6 42.5 L86.1 42.5 L86.6 42.7 L87.1 39.9 L87.5 40.2 L88.0 42.2 L88.5 42.2 L89.0 42.7 L89.5 41.2 L90.0 38.4 L90.4 42.2 L90.9 40.7 L91.4 42.2 L91.9 42.2 L92.4 42.7 L92.9 42.2 L93.3 40.7 L93.8 42.7 L94.3 42.0 L94.8 39.9 L95.3 42.7 L95.8 42.2 L96.2 42.7 L96.7 40.4 L97.2 39.4 L97.7 41.5 L98.2 42.0 L98.7 41.7 L99.1 40.9 L99.6 39.6 L100.1 40.9 L100.6 42.7 L101.1 42.2 L101.6 40.9 L102.0 39.6 L102.5 42.5 L103.0 42.7 L103.5 42.7 L104.0 39.6 L104.5 42.7 L104.9 39.1 L105.4 42.2 L105.9 39.4 L106.4 42.7 L106.9 41.5 L107.4 41.5 L107.8 35.5 L108.3 34.7 L108.8 41.7 L109.3 42.7 L109.8 42.5 L110.3 39.6 L110.7 40.9 L111.2 42.2 L111.7 39.6 L112.2 39.6 L112.7 38.6 L113.2 42.5 L113.6 42.2 L114.1 42.7 L114.6 41.7 L115.1 41.5 L115.6 41.2 L116.1 42.7 L116.5 42.7 L117.0 40.7 L117.5 39.1 L118.0 42.7 L118.5 41.2 L119.0 42.7 L119.4 40.2 L119.9 42.2 L120.4 40.7 L120.9 41.5 L121.4 42.0 L121.9 42.7 L122.3 42.7 L122.8 42.2 L123.3 42.2 L123.8 41.5 L124.3 40.4 L124.8 41.2 L125.2 37.1 L125.7 42.7 L126.2 42.5 L126.7 42.0 L127.2 38.6 L127.7 40.4 L128.1 41.7 L128.6 42.5 L129.1 41.7 L129.6 36.3 L130.1 40.4 L130.6 42.0 L131.0 42.7 L131.5 42.2 L132.0 42.7 L132.5 42.7 L133.0 41.2 L133.5 41.7 L133.9 42.7 L134.4 42.7 L134.9 42.7 L135.4 40.4 L135.9 39.6 L136.4 36.8 L136.8 42.2 L137.3 37.8 L137.8 42.2 L138.3 39.6 L138.8 42.5 L139.3 42.7 L139.7 42.5 L140.2 39.6 L140.7 41.2 L141.2 42.2 L141.7 42.5 L142.2 42.7 L142.6 41.2 L143.1 41.7 L143.6 42.0 L144.1 39.6 L144.6 42.7 L145.1 42.7 L145.5 42.2 L146.0 38.6 L146.5 41.7 L147.0 42.7 L147.5 42.0 L148.0 41.7 L148.4 40.2 L148.9 39.9 L149.4 42.0 L149.9 42.0 L150.4 42.2 L150.9 42.0 L151.3 42.5 L151.8 42.7 L152.3 42.0 L152.8 41.2 L153.3 42.5 L153.8 42.5 L154.2 41.7 L154.7 42.5 L155.2 38.6 L155.7 42.0 L156.2 40.9 L156.7 39.4 L157.1 41.2 L157.6 41.2 L158.1 42.0 L158.6 39.4 L159.1 38.1 L159.6 40.9 L160.0 41.7 L160.5 41.5 L161.0 42.2 L161.5 40.7 L162.0 42.2 L162.5 38.6 L162.9 39.6 L163.4 39.4 L163.9 39.1 L164.4 42.0 L164.9 41.7 L165.4 41.7 L165.8 42.7 L166.3 41.7 L166.8 42.5 L167.3 40.7 L167.8 42.0 L168.3 42.0 L168.7 42.5 L169.2 42.0 L169.7 41.5 L170.2 42.7 L170.7 39.1 L171.2 42.0 L171.6 41.5 L172.1 39.4 L172.6 39.6 L173.1 41.7 L173.6 42.7 L174.1 40.9 L174.5 38.4 L175.0 42.7 L175.5 42.0 L176.0 41.2 L176.5 41.2 L177.0 36.3 L177.4 42.5 L177.9 42.7 L178.4 40.2 L178.9 42.0 L179.4 42.5 L179.9 38.4 L180.3 39.4 L180.8 41.2 L181.3 38.9 L181.8 40.2 L182.3 42.0 L182.8 42.2 L183.2 37.6 L183.7 38.9 L184.2 38.9 L184.7 41.7 L185.2 40.2 L185.7 42.5 L186.1 41.7 L186.6 38.6 L187.1 39.4 L187.6 42.5 L188.1 39.6 L188.6 41.2 L189.0 40.7 L189.5 40.2 L190.0 42.2 L190.5 38.9 L191.0 41.2 L191.5 38.9 L191.9 41.2 L192.4 38.9 L192.9 40.7 L193.4 40.7 L193.9 41.7 L194.4 42.0 L194.8 42.0 L195.3 42.5 L195.8 38.1 L196.3 39.6 L196.8 38.9 L197.3 41.7 L197.7 35.0 L198.2 37.1 L198.7 27.5 L199.2 40.4 L199.7 39.9 L200.2 40.2 L200.6 38.6 L201.1 41.2 L201.6 42.2 L202.1 42.7 L202.6 41.7 L203.1 41.7 L203.5 41.2 L204.0 42.7 L204.5 42.2 L205.0 36.3 L205.5 40.9 L206.0 42.5 L206.4 36.3 L206.9 42.2 L207.4 36.3 L207.9 41.5 L208.4 42.7 L208.9 36.0 L209.3 38.1 L209.8 42.5 L210.3 42.5 L210.8 41.2 L211.3 42.2 L211.8 40.9 L212.2 38.4 L212.7 41.5 L213.2 26.8 L213.7 42.0 L214.2 40.9 L214.7 28.3 L215.1 37.1 L215.6 40.4 L216.1 34.5 L216.6 40.7 L217.1 36.3 L217.6 32.9 L218.0 29.3 L218.5 40.7 L219.0 37.3 L219.5 28.8 L220.0 30.9 L220.5 32.7 L220.9 38.9 L221.4 6.6 L221.9 2.0 L222.4 34.0 L222.9 34.5 L223.4 30.4 L223.8 25.5 L224.3 37.6 L224.8 42.5 L225.3 35.5 L225.8 20.1 L226.3 41.7 L226.7 34.2 L227.2 15.7 L227.7 27.0 L228.2 37.6 L228.7 28.8 L229.2 36.6 L229.6 30.6 L230.1 39.4 L230.6 37.3 L231.1 33.7 L231.6 26.2 L232.1 32.7 L232.5 28.8 L233.0 34.5 L233.5 34.0 L234.0 37.1 L234.5 28.3 L235.0 16.7 L235.4 35.0 L235.9 40.9 L236.4 39.4 L236.9 39.4 L237.4 40.9 L237.9 40.2 L238.3 35.3 L238.8 25.2 L239.3 40.7 L239.8 39.4 L240.3 24.4 L240.8 41.7 L241.2 36.8 L241.7 36.8 L242.2 38.6 L242.7 36.8 L243.2 38.6 L243.7 40.7 L244.1 39.6 L244.6 42.7 L245.1 42.0 L245.6 36.8 L246.1 39.9 L246.6 10.0 L247.0 39.6 L247.5 37.3 L248.0 42.5"/></g><text class="c-muted" x="20" y="180" font-size="11">In 17 repos · all time</text></svg>